<?xml version="1.0" encoding="UTF-8" standalone="no"?>
<svg
   height="254.83351pt"
   version="1.1"
   width="279.42389pt"
   viewBox="0 0 279.42389 254.83351"
   id="svg4"
   sodipodi:docname="handrail.svg"
   inkscape:export-filename="handrail.svg"
   inkscape:export-xdpi="96"
   inkscape:export-ydpi="96"
   xmlns:inkscape="http://www.inkscape.org/namespaces/inkscape"
   xmlns:sodipodi="http://sodipodi.sourceforge.net/DTD/sodipodi-0.dtd"
   xmlns="http://www.w3.org/2000/svg"
   xmlns:svg="http://www.w3.org/2000/svg">
  <sodipodi:namedview
     id="namedview4"
     pagecolor="#ffffff"
     bordercolor="#000000"
     borderopacity="0.25"
     inkscape:showpageshadow="2"
     inkscape:pageopacity="0.0"
     inkscape:pagecheckerboard="0"
     inkscape:deskcolor="#d1d1d1"
     inkscape:document-units="pt" />
  <defs
     id="defs1" />
  <path
     style="display:inline;opacity:1;fill:#171615;fill-rule:nonzero;stroke:none"
     d="m 94.074662,222.16198 2.417,-34.092 c 0.452,-6.361 5.813998,-11.591 11.654998,-11.479 0.198,0.005 0.391,0.031 0.587,0.047 0.055,0.384 0.111,0.768 0.178,1.157 1.453,8.444 5.566,13.833 10.308,17.154 l 0.459,27.762 c 0.049,2.974 -1.06,5.74 -3.123,7.789 -2.001,1.987 -4.669,3.071 -7.539,3.071 -0.09,0 -0.181,-0.001 -0.272,-0.004 l -4.389,-0.104 c -2.964,-0.069 -5.663998,-1.281 -7.600998,-3.412 -1.938,-2.13 -2.89,-4.931 -2.68,-7.889 z m 42.021998,6.898 0.923,-29.018 c 4.767,0.551 13.341,1.361 23.167,1.45 l 1.519,27.327 c 0.165,2.963 -0.831,5.755 -2.805,7.864 -1.973,2.107 -4.694,3.285 -7.661,3.316 l -4.391,0.045 c -0.04,0.001 -0.08,0.001 -0.119,0.001 -2.926,0 -5.633,-1.122 -7.634,-3.165 -2.029,-2.074 -3.094,-4.851 -2.999,-7.82 z m 40.481,-3.815 1.209,-24.492 c 8.3297,-0.846 16.5178,-2.513 23.2558,-5.503 l 1.1449,30.11 c 0.1128,2.968 -0.9342,5.749 -2.9483,7.832 -2.0019,2.068 -4.7251,3.206 -7.6738,3.206 h -0.056 l -4.3902,-0.022 c -2.9684,-0.014 -5.6984,-1.179 -7.6864,-3.277 -1.988,-2.1 -3.002,-4.889 -2.855,-7.854 z M 72.938662,109.43398 c 3.095,-6.093 8.298,-13.833996 15.507,-16.108996 9.743,-3.076 25.967998,-1.164 31.390998,-0.169 2.218,0.41 4.454,-0.17 6.155,-1.654 1.003,-0.842 25.047,-20.322 66.899,6.636 13.4554,8.665996 20.9903,20.293996 22.3951,34.560996 1.4488,14.714 -3.8772,29.096 -9.27,38.129 -1.4669,2.458 -2.9367,4.518 -4.2785,6.081 -0.4882,0.569 -0.9611,1.08 -1.4083,1.512 -1.2126,1.173 -2.7819,2.193 -4.6217,3.084 -4.1306,1.999 -9.67,3.325 -15.8716,4.135 -2.189,0.286 -4.458,0.508 -6.779,0.672 -0.485,0.034 -0.97,0.069 -1.459,0.099 -2.109,0.127 -4.253,0.206 -6.406,0.247 -0.418,0.008 -0.836,0.016 -1.255,0.021 -2.567,0.03 -5.138,0.005 -7.678,-0.067 -5.111,-0.145 -10.084,-0.477 -14.585,-0.932 -2.137,-0.216 -4.17,-0.458 -6.058,-0.72 -0.5,-0.069 -0.819,-0.098 -1.316,-0.066 -0.189,0.004 -0.426,-0.001 -0.682,-0.013 -0.25,-0.011 -0.526,-0.033 -0.828,-0.068 -1.854,-0.219 -4.539,-0.984 -6.604,-3.371 -1.221,-1.412 -2.224,-3.387 -2.701,-6.156 -0.546,-3.173 -0.539,-5.798 0.039,-7.963 1.069,-4.012 4.126,-6.424 9.463,-7.654 5.477,-1.263 24.738,-1.742 35.591,-1.748 3.498,-0.002 6.509,-2.457 7.226,-5.881 0.718,-3.423 -1.068,-6.884 -4.271,-8.289 -6.295,-2.764 -15.943,-9.358 -16.661,-14.736 -1.447,-10.855 1.705,-16.88 1.84,-17.131 l -0.059,0.104 -12.786,-7.43 c -0.413,0.71 -3.011,5.461 -3.877,13.578 -0.387,3.626 -0.431,7.921 0.224,12.834 0.643,4.823 3.046,9.062 6.139,12.654 -6.661,0.308 -13.122,0.813 -16.688,1.634 -10.228,2.359 -17.079,8.251 -19.895,16.612 -0.422,-0.032 -0.846,-0.053 -1.273,-0.064 -0.194,-0.004 -0.385,-0.006 -0.578,-0.006 -6.929,0 -13.373998,2.953 -18.144998,7.72 -0.45,-0.618 -0.926,-1.215 -1.428,-1.789 -4.036,-4.616 -9.697,-7.736 -16.052,-8.268 -0.645,-0.054 -1.287,-0.081 -1.928,-0.081 -2.574,0 -5.091,0.434 -7.478,1.231 -0.443,-17.935 3.103,-37.506 10.051,-51.179 z m -14.36,86.501 1.795,-12.658 c 0.398,-2.81 1.947,-5.287 4.053,-6.948 1.897,-1.497 4.246,-2.334 6.633,-2.13 2.628,0.221 4.982,1.685 6.596,3.797 1.445,1.891 2.298,4.3 2.197,6.821 l -0.926,22.956 c -0.1,2.467 -1.146,4.701 -2.947,6.292 -1.607,1.42 -3.65,2.179 -5.82,2.179 -0.26,0 -0.523,-0.01 -0.787,-0.032 l -4.435,-0.372 c -2.44,-0.205 -4.591,-1.328 -6.056,-3.165 -1.466,-1.838 -2.083,-4.186 -1.74,-6.612 l 1.374,-9.686 z m -34.00477,-14.179 h 21.07877 l -3.152,22.232 c -0.224,1.578 -0.289,6.17452 5.772,17.25152 3.57867,3.77621 6.77667,7.14036 15.43,9.33648 l 4.436,0.372 c 4.137,0.347 8.173,-0.362 11.812,-2.021 0.975,4.094 2.962,7.884 5.865,11.076 4.684,5.15 11.145,8.078 18.189998,8.245 l 4.389,0.104 c 6.152,0.138 11.966,-1.835 16.636,-5.615 0.985,1.603 2.149,3.109 3.497,4.486 4.874,4.981 11.479,7.684 18.473,7.609 l 4.392,-0.045 c 7.044,-0.073 13.545,-2.914 18.304,-7.999 0.434,-0.464 0.842,-0.945 1.237,-1.434 4.494,3.733 10.11,5.78 16.1123,5.81 l 4.3906,0.022 c 3.9142,0.002 8.87743,-0.3163 18.25371,-8.5074 7.46417,-9.62519 7.28589,-17.5776 7.27439,-17.8806 l -1.298,-34.135 c -0.0821,-2.16 -0.4222,-4.259 -0.9816,-6.269 0.6311,-0.827 1.2634,-1.711 1.893,-2.638 l 35.48908,0.15935 c 10.70051,0.048 27.05982,-5.50402 27.35492,-19.54782 0.18243,-15.62122 -12.9748,-22.86296 -27.35492,-22.96818 l -21.77578,-0.15935 c 0.0628,-2.644 -0.0252,-5.313 -0.2888,-7.99 -1.8435,-18.72 -11.9074,-34.468996 -29.1041,-45.544996 -0.5983,-0.385 -1.1854,-0.737 -1.7783,-1.107 -2.9429,-8.386 -13.7609,-42.134 -13.5892,-84.53900002 l -7.3943,-0.03 v 0 l -7.394,-0.02899999792 C 170.61366,31.855984 176.24366,58.808984 180.72266,75.161984 c -11.144,-4.452 -21.032,-6.08 -29.507,-6.08 -15.963,10e-4 -26.932,5.734 -31.906,9.022 -4.86,-0.691 -14.468,-1.74 -23.931998,-0.96 4.552,-16.105 10.663998,-43.967 10.529998,-77.144000017923 L 98.513662,0.02898398 v 0 l -7.394,0.03 c 0.154,38.29300002 -8.714,69.68600002 -12.57,81.50700002 -7.314,4.009 -13.738,11.214 -18.795,21.168996 -5.304,10.437 -8.873,23.253 -10.589,36.505 h -24.59177 c -15.78239,0 -24.59363,10.67578 -24.573849996574,22.02904 C 0.176342,174.05319 14.772972,181.75598 24.573892,181.75598 Z"
     id="path4"
     sodipodi:nodetypes="ccccccccscccccccccccscccccccscccccccccsccccsccsccsccccccccscccccccsccccsccssccccccscccsccccccsccccsccscccccccsccccccscscccccccccccccccccccscs"
     inkscape:export-filename=".\path4.svg"
     inkscape:export-xdpi="78.618988"
     inkscape:export-ydpi="78.618988" />
</svg>
