<!--?xml version="1.0" encoding="utf-8"?-->
<!-- Generator: Adobe Illustrator 18.1.1, SVG Export Plug-In . SVG Version: 6.00 Build 0)  -->

<svg version="1.1" id="_x32_" xmlns="http://www.w3.org/2000/svg" xmlns:xlink="http://www.w3.org/1999/xlink" x="0px" y="0px" viewBox="0 0 512 512" style="width: 256px; height: 256px; opacity: 1;" xml:space="preserve">
<style type="text/css">
	.st0{fill:#4B4B4B;}
</style>
<g>
	<path class="st0" d="M411.619,218.98H215.09V42.171C215.081,18.88,196.218,0,172.919,0h-67.663
		C81.964,0,63.093,18.871,63.084,42.171v229.944v4.302V512h255.924v-65.739c14.477-3.882,28.568-11.141,41.86-20.871
		c15.452-11.335,29.887-25.77,42.557-41.658l0.017-0.025c13.141-16.612,24.384-34.828,32.441-53.161
		c8.041-18.334,12.964-36.785,13.032-54.102v-0.026v-4.302v-15.847C448.908,235.666,432.212,218.98,411.619,218.98z M80.292,42.171
		c0.025-12.058,8.57-22.116,19.939-24.45c1.621-0.336,3.302-0.513,5.024-0.513h67.663c13.788,0.016,24.938,11.174,24.963,24.963
		v194.016v35.928H80.292V42.171z M431.372,281.047c-0.194,3.286-0.588,6.663-1.193,10.142c-0.034,0.194-0.076,0.387-0.109,0.588
		c-2.588,14.435-8.553,30.332-16.947,46.078c-0.605,1.109-1.278,2.218-1.899,3.327c-1.538,2.773-3.084,5.529-4.764,8.276
		c-2.302,3.73-4.73,7.428-7.26,11.074c-0.143,0.201-0.261,0.412-0.404,0.614c-2.823,4.032-5.78,8.008-8.848,11.881l0.042-0.05
		c-0.008,0.017-0.025,0.033-0.034,0.042c-0.009,0.016-0.025,0.025-0.034,0.042c-8.764,10.981-18.401,21.14-28.458,29.828
		c-0.227,0.192-0.446,0.395-0.673,0.588c-3.108,2.655-6.251,5.142-9.427,7.495c-0.369,0.286-0.748,0.571-1.125,0.84
		c-3.177,2.319-6.37,4.453-9.562,6.411c-0.294,0.176-0.58,0.362-0.866,0.529c-10.444,6.276-20.938,10.604-30.954,12.419
		l-1.689,0.302c-0.538,0.084-1.076,0.202-1.605,0.27l-3.764,0.47v0.235v62.345H80.292V280.719h351.105
		C431.389,280.828,431.38,280.938,431.372,281.047z M431.708,272.115H206.486v-35.928h205.133
		c11.09,0.016,20.073,8.999,20.089,20.081V272.115z" style="fill: rgb(75, 75, 75);"></path>
</g>
</svg>
