<?xml version="1.0" encoding="UTF-8" standalone="no"?>
<!-- Created with Inkscape (http://www.inkscape.org/) -->

<svg
   width="9.54mm"
   height="9.5340004mm"
   viewBox="0 0 9.54 9.5340004"
   version="1.1"
   id="svg1"
   xmlns="http://www.w3.org/2000/svg"
   xmlns:svg="http://www.w3.org/2000/svg">
  <defs
     id="defs1" />
  <g
     id="layer1">
    <g
       transform="matrix(0.00593637,0,0,0.00593637,-0.79547443,-0.87858519)"
       id="g3">
      <rect
         x="866"
         y="148"
         width="174"
         height="1606"
         id="rect1" />
      <rect
         x="134"
         y="848"
         width="1607"
         height="174"
         id="rect2" />
      <path
         d="m 378.5,945.5 c 0,-313.145 253.855,-567 567,-567 313.15,0 567,253.855 567,567 0,313.15 -253.85,567 -567,567 -313.145,0 -567,-253.85 -567,-567 z"
         stroke="#000000"
         stroke-width="134.667"
         stroke-miterlimit="8"
         fill="#ffffff"
         fill-rule="evenodd"
         id="path2" />
      <path
         d="M 576,944.5 C 576,740.983 740.983,576 944.5,576 1148.02,576 1313,740.983 1313,944.5 1313,1148.02 1148.02,1313 944.5,1313 740.983,1313 576,1148.02 576,944.5 Z"
         fill-rule="evenodd"
         id="path3" />
    </g>
  </g>
</svg>
