<svg width="96" height="96" xmlns="http://www.w3.org/2000/svg" xmlns:xlink="http://www.w3.org/1999/xlink" xml:space="preserve" overflow="hidden"><g transform="translate(-432 -222)"><path d="M488.969 246.233C488.541 245.553 487.826 245.104 487.027 245.016 486.265 244.927 485.504 245.191 484.96 245.732L448.588 280.832 443.067 286.121 449.458 297.196 456.776 294.917 466.527 292.151 466.465 292.208 470.949 297.153 485.076 293.253 486.376 286.57 486.276 286.551 505.368 281.136 505.48 281.097C506.246 280.771 506.833 280.128 507.085 279.334 507.318 278.622 507.228 277.843 506.838 277.203ZM445.584 286.477 449.084 283.127 454.996 293.374 450.396 294.808ZM483.35 291.648 471.6 294.894 468.58 291.564 484.23 287.125ZM505.184 278.728C505.115 278.945 504.963 279.125 504.76 279.228L456.96 292.785 450.565 281.7 486.365 247.16C486.48 247.041 486.644 246.982 486.809 247 486.991 247.019 487.156 247.117 487.26 247.267L505.136 278.233C505.225 278.383 505.242 278.564 505.184 278.728Z"/><path d="M506.254 255.839 516.224 250.229 517.204 251.972 507.234 257.581Z"/><path d="M507.751 264.84 508.291 262.914 519.307 266.003 518.767 267.929Z"/><path d="M500.274 251.757 503.363 240.741 505.289 241.281 502.2 252.297Z"/></g></svg>