<svg width="96" height="96" xmlns="http://www.w3.org/2000/svg" xmlns:xlink="http://www.w3.org/1999/xlink" xml:space="preserve" overflow="hidden"><g transform="translate(-592 -312)"><path d="M598.567 363.958 605.056 370.446 610 365.764 610 397.976 635 397.986 635 373.017 645 373.017 645 397.99 670 398 670 365.722 674.969 370.422 681.433 363.959 640 324.6ZM668 396 647 395.991 647 371.017 633 371.017 633 395.985 612 395.977 612 363.87 640 337.354 668 363.831ZM605.094 367.656 601.433 364 640 327.356 678.567 364 674.93 367.632 640 334.6Z"/></g></svg>