<svg width="96" height="96" xmlns="http://www.w3.org/2000/svg" xmlns:xlink="http://www.w3.org/1999/xlink" xml:space="preserve" overflow="hidden"><g transform="translate(-592 -312)"><path d="M663 324 647.886 324C643.39 320 636.61 320 632.114 324L617 324C615.343 324 614 325.343 614 327L614 329C614 330.657 615.343 332 617 332L617.091 332 619.008 352.128C619.578 356.544 622.071 359.228 626.095 359.857 625.635 359.074 625.214 358.269 624.836 357.444 622.664 356.593 621.363 354.751 620.996 351.905L619.1 332 626.357 332C624.774 335.801 623.972 339.882 624 344 624 351.892 626.785 358.856 631.011 363L620 363C618.343 363 617 364.343 617 366 617 367.657 618.343 369 620 369L620.13 369C621.056 375.26 625.174 380.587 631 383.059L631 401 649 401 649 383.059C654.826 380.587 658.944 375.26 659.87 369L660 369C661.657 369 663 367.657 663 366 663 364.343 661.657 363 660 363L648.989 363C653.215 358.856 656 351.892 656 344 656.028 339.882 655.226 335.801 653.643 332L660.9 332 659.008 351.872C658.638 354.741 657.336 356.59 655.164 357.443 654.786 358.269 654.365 359.074 653.905 359.857 657.929 359.231 660.422 356.539 660.996 352.095L662.909 332 663 332C664.657 332 666 330.657 666 329L666 327C666 325.343 664.657 324 663 324ZM617 330C616.448 330 616 329.552 616 329L616 327C616 326.448 616.448 326 617 326L630.057 326C628.996 327.226 628.077 328.568 627.318 330ZM647 399 633 399 633 383.844C637.539 385.385 642.461 385.385 647 383.844ZM640 383C630.837 383 623.251 376.882 622.14 369L657.86 369C656.749 376.882 649.163 383 640 383ZM661 366C661 366.552 660.552 367 660 367L620 367C619.448 367 619 366.552 619 366 619 365.448 619.448 365 620 365L660 365C660.552 365 661 365.448 661 366ZM645.926 363 634.074 363C629.311 359.646 626 352.4 626 344 626 332.42 632.28 323 640 323 647.72 323 654 332.42 654 344 654 352.4 650.689 359.646 645.926 363ZM664 329C664 329.552 663.552 330 663 330L652.682 330C651.923 328.568 651.004 327.226 649.943 326L663 326C663.552 326 664 326.448 664 327Z"/></g></svg>