<?xml version="1.0" encoding="UTF-8" standalone="no"?>
<svg
   width="2000"
   height="2000"
   xml:space="preserve"
   overflow="hidden"
   version="1.1"
   id="svg9"
   xmlns="http://www.w3.org/2000/svg"
   xmlns:svg="http://www.w3.org/2000/svg"><defs
     id="defs9" /><g
     transform="translate(-1484.0621,-106)"
     id="g9"><path
       d="m 2169.9528,547.78575 c 0,-61.028 49.47,-110.502 110.5,-110.502 h 442 c 61.03,0 110.5,49.474 110.5,110.502 v 448.998 c 0,61.03005 -49.47,110.50005 -110.5,110.50005 h -442 c -61.03,0 -110.5,-49.47 -110.5,-110.50005 z"
       stroke="#042433"
       stroke-width="20.625"
       stroke-miterlimit="8"
       fill="#ffffff"
       fill-rule="evenodd"
       id="path1" /><path
       id="rect1"
       style="fill:#ffffff;stroke:#042433;stroke-width:20.625;stroke-miterlimit:8"
       d="m 2320.9528,1231.2838 h 361 v 516 h -361 z" /><path
       d="m 2832.9328,1075.6238 c 1.12,195.23 -146.39,354.46 -329.46,355.65 -183.08,1.2 -332.4,-156.1 -333.51,-351.33 -0.01,-0.72 -0.01,-1.44 -0.01,-2.16 z"
       stroke="#042433"
       stroke-width="20.625"
       stroke-miterlimit="8"
       fill="#ffffff"
       fill-rule="evenodd"
       id="path2" /><path
       d="m 2169.9528,554.28375 663.18,10e-4"
       stroke="#000000"
       stroke-width="20.625"
       stroke-miterlimit="8"
       fill="none"
       fill-rule="evenodd"
       id="path3" /><path
       d="m 2321.8128,1048.9438 c -132.62,-162.71005 -160.39,-472.42105 -62,-691.76705 98.38,-219.346 285.65,-265.260999 418.27,-102.554 132.63,162.707 160.4,472.422 62.01,691.771 -17.3,38.59 -37.92,72.80005 -61.19,101.55005 z"
       stroke="#042433"
       stroke-width="20.625"
       stroke-miterlimit="8"
       fill="#ffffff"
       fill-rule="evenodd"
       id="path4" /><path
       d="m 2126.9528,1046.6138 c 0,-3.49 2.84,-6.33 6.33,-6.33 h 734.34 c 3.49,0 6.33,2.84 6.33,6.33 v 25.34 c 0,3.49 -2.84,6.33 -6.33,6.33 h -734.34 c -3.49,0 -6.33,-2.84 -6.33,-6.33 z"
       stroke="#042433"
       stroke-width="20.625"
       stroke-miterlimit="8"
       fill="#ffffff"
       fill-rule="evenodd"
       id="path5" /><path
       d="M 1755.9524,1748.6285 3275.9017,139.05827"
       stroke="#000000"
       stroke-width="17.873"
       stroke-miterlimit="8"
       fill="none"
       fill-rule="evenodd"
       id="path6" /><path
       d="m 1756.9528,1777.3638 1501.5,-1590.08005"
       stroke="#ffffff"
       stroke-width="20.625"
       stroke-miterlimit="8"
       fill="none"
       fill-rule="evenodd"
       id="path7" /><path
       d="m 1982.0368,1844.2379 v 220.8881 h -25.7432 l -79.7446,-143.0669 q -12.2798,-22.7841 -31.5132,-60.5112 h -2.959 q 0.5918,47.1958 0.5918,66.2813 v 137.2968 h -18.7895 v -220.8881 h 30.9214 l 76.0459,136.4091 q 13.6113,25.2993 31.5131,61.9908 h 2.959 q -2.0713,-39.2066 -2.0713,-68.7964 v -129.6035 z m 145.1382,-3.9947 q 42.3134,0 67.1689,33.8804 22.4883,30.7734 22.4883,80.3364 0,56.8125 -28.8501,88.4737 -24.2637,26.4829 -60.8071,26.4829 -42.3135,0 -67.169,-34.0284 -22.4883,-30.7734 -22.4883,-80.1884 0,-56.8125 29.146,-88.6216 24.2637,-26.335 60.5113,-26.335 z m 0,17.3101 q -32.9927,0 -51.6343,28.4062 -16.8662,25.7432 -16.8662,68.7964 0,49.1192 21.7485,75.4541 18.1978,21.8965 46.752,21.8965 33.1406,0 51.7822,-28.5542 16.7183,-25.7432 16.7183,-68.7964 0,-49.2671 -21.6006,-75.3061 -18.0498,-21.8965 -46.8999,-21.8965 z"
       id="text7"
       style="font-size:303px;font-family:'Yu Gothic', 'Yu Gothic_MSFontService', sans-serif"
       aria-label="NO" /><path
       d="m 2377.8122,1844.2379 v 220.8881 h -19.9731 v -220.8881 z m 278.4404,0 v 220.8881 h -19.0854 v -139.0722 l 0.2959,-65.3936 h -3.4028 q -4.4385,15.0908 -20.8609,64.21 l -49.7109,140.2558 h -25.7432 l -48.9712,-140.2558 q -10.8003,-30.7735 -21.3047,-64.21 h -3.2548 q -0.148,6.3618 -0.148,13.3154 l 0.4439,52.3741 v 138.7763 h -18.1978 v -220.8881 h 33.5845 l 47.9355,138.4804 q 11.836,33.7324 21.7486,64.8018 h 3.1069 q 17.0142,-50.7466 21.7485,-63.9141 l 48.5274,-139.3681 z m 145.5821,0 72.9389,220.8881 h -21.1567 l -23.376,-72.9389 h -83.2954 l -23.9678,72.9389 h -19.9731 l 73.0869,-220.8881 z m 23.8198,131.8227 -18.3457,-57.5522 q -9.9126,-30.0337 -17.606,-58.5879 h -2.811 q -7.9892,29.5898 -17.1621,58.292 l -18.1978,57.8481 z m 246.3355,-76.3418 -19.3814,5.77 q -13.1675,-47.9355 -57.7002,-47.9355 -33.1406,0 -52.374,28.5542 -17.606,26.039 -17.606,68.7964 0,48.9712 21.8965,75.1582 18.4937,22.0444 47.7876,22.0444 31.6611,0 47.4917,-26.187 12.4277,-20.417 12.8716,-52.2261 h -62.4346 v -17.0141 h 81.2241 v 109.0385 h -14.2031 l -2.5151,-37.5791 q -9.3208,21.3047 -27.6665,31.9571 -15.8306,9.3208 -35.9517,9.3208 -42.4614,0 -67.1689,-33.8804 -22.4883,-30.6255 -22.4883,-80.3364 0,-56.6646 29.8857,-88.6216 24.5596,-26.335 60.9551,-26.335 30.9214,0 51.9302,18.3457 17.6059,15.3867 25.4473,41.1299 z"
       id="text8"
       style="font-size:303px;font-family:'Yu Gothic', 'Yu Gothic_MSFontService', sans-serif"
       aria-label="IMAG" /><path
       d="m 3275.8344,1844.2379 v 17.31 h -115.9922 v 77.2295 h 87.586 v 17.3101 h -87.586 v 91.7285 h 118.2114 v 17.31 h -138.1845 v -220.8881 z"
       id="text9"
       style="font-size:303px;font-family:'Yu Gothic', 'Yu Gothic_MSFontService', sans-serif"
       aria-label="E" /></g></svg>
