<svg width="1914" height="2459" xmlns="http://www.w3.org/2000/svg" xmlns:xlink="http://www.w3.org/1999/xlink" xml:space="preserve" overflow="hidden"><g transform="translate(-1487 -106)"><path d="M2049.5 774.002C2049.5 712.974 2098.97 663.5 2160 663.5L2602 663.5C2663.03 663.5 2712.5 712.974 2712.5 774.002L2712.5 1223C2712.5 1284.03 2663.03 1333.5 2602 1333.5L2160 1333.5C2098.97 1333.5 2049.5 1284.03 2049.5 1223Z" stroke="#042433" stroke-width="20.625" stroke-miterlimit="8" fill="#FFFFFF" fill-rule="evenodd"/><rect x="2200.5" y="1457.5" width="361" height="516" stroke="#042433" stroke-width="20.625" stroke-miterlimit="8" fill="#FFFFFF"/><path d="M2712.48 1301.84C2713.6 1497.07 2566.09 1656.3 2383.02 1657.49 2199.94 1658.69 2050.62 1501.39 2049.51 1306.16 2049.5 1305.44 2049.5 1304.72 2049.5 1304Z" stroke="#042433" stroke-width="20.625" stroke-miterlimit="8" fill="#FFFFFF" fill-rule="evenodd"/><path d="M2049.5 780.5 2712.68 780.501" stroke="#000000" stroke-width="20.625" stroke-miterlimit="8" fill="none" fill-rule="evenodd"/><path d="M2201.36 1275.16C2068.74 1112.45 2040.97 802.739 2139.36 583.393 2237.74 364.047 2425.01 318.132 2557.63 480.839 2690.26 643.546 2718.03 953.261 2619.64 1172.61 2602.34 1211.2 2581.72 1245.41 2558.45 1274.16Z" stroke="#042433" stroke-width="20.625" stroke-miterlimit="8" fill="#FFFFFF" fill-rule="evenodd"/><path d="M2006.5 1272.83C2006.5 1269.34 2009.34 1266.5 2012.83 1266.5L2747.17 1266.5C2750.66 1266.5 2753.5 1269.34 2753.5 1272.83L2753.5 1298.17C2753.5 1301.66 2750.66 1304.5 2747.17 1304.5L2012.83 1304.5C2009.34 1304.5 2006.5 1301.66 2006.5 1298.17Z" stroke="#042433" stroke-width="20.625" stroke-miterlimit="8" fill="#FFFFFF" fill-rule="evenodd"/><path d="M0 0 1753.98 1857.4" stroke="#000000" stroke-width="20.625" stroke-miterlimit="8" fill="none" fill-rule="evenodd" transform="matrix(1 0 0 -1 1636.5 1973.9)"/><path d="M0 0 1501.5 1590.08" stroke="#FFFFFF" stroke-width="20.625" stroke-miterlimit="8" fill="none" fill-rule="evenodd" transform="matrix(1 0 0 -1 1636.5 2003.58)"/><text font-family="Yu Gothic,Yu Gothic_MSFontService,sans-serif" font-weight="400" font-size="303" transform="matrix(1 0 0 1 1669.25 2298)">NO</text><text font-family="Yu Gothic,Yu Gothic_MSFontService,sans-serif" font-weight="400" font-size="303" transform="matrix(1 0 0 1 2203.21 2298)">IMAG</text><text font-family="Yu Gothic,Yu Gothic_MSFontService,sans-serif" font-weight="400" font-size="303" transform="matrix(1 0 0 1 2985.24 2298)">E</text></g></svg>